G04 #@! TF.GenerationSoftware,KiCad,Pcbnew,(5.1.2)-1*
G04 #@! TF.CreationDate,2021-01-27T20:04:39+01:00*
G04 #@! TF.ProjectId,proto_simple,70726f74-6f5f-4736-996d-706c652e6b69,rev?*
G04 #@! TF.SameCoordinates,Original*
G04 #@! TF.FileFunction,Legend,Bot*
G04 #@! TF.FilePolarity,Positive*
%FSLAX46Y46*%
G04 Gerber Fmt 4.6, Leading zero omitted, Abs format (unit mm)*
G04 Created by KiCad (PCBNEW (5.1.2)-1) date 2021-01-27 20:04:39*
%MOMM*%
%LPD*%
G04 APERTURE LIST*
%ADD10C,0.250000*%
%ADD11C,0.150000*%
G04 APERTURE END LIST*
D10*
X57632971Y14960042D02*
X56632971Y14436233D01*
X56632971Y14960042D02*
X57632971Y14436233D01*
X57632971Y13531471D02*
X57632971Y14102900D01*
X57632971Y13817185D02*
X56132971Y13817185D01*
X56347257Y13912423D01*
X56490114Y14007661D01*
X56561542Y14102900D01*
X60132971Y14960042D02*
X59132971Y14436233D01*
X59132971Y14960042D02*
X60132971Y14436233D01*
X58632971Y14150519D02*
X58632971Y13531471D01*
X59204400Y13864804D01*
X59204400Y13721947D01*
X59275828Y13626709D01*
X59347257Y13579090D01*
X59490114Y13531471D01*
X59847257Y13531471D01*
X59990114Y13579090D01*
X60061542Y13626709D01*
X60132971Y13721947D01*
X60132971Y14007661D01*
X60061542Y14102900D01*
X59990114Y14150519D01*
X62632971Y14960042D02*
X61632971Y14436233D01*
X61632971Y14960042D02*
X62632971Y14436233D01*
X61132971Y13579090D02*
X61132971Y14055280D01*
X61847257Y14102900D01*
X61775828Y14055280D01*
X61704400Y13960042D01*
X61704400Y13721947D01*
X61775828Y13626709D01*
X61847257Y13579090D01*
X61990114Y13531471D01*
X62347257Y13531471D01*
X62490114Y13579090D01*
X62561542Y13626709D01*
X62632971Y13721947D01*
X62632971Y13960042D01*
X62561542Y14055280D01*
X62490114Y14102900D01*
X65132971Y14960042D02*
X64132971Y14436233D01*
X64132971Y14960042D02*
X65132971Y14436233D01*
X63632971Y14150519D02*
X63632971Y13483852D01*
X65132971Y13912423D01*
X67632971Y14960042D02*
X66632971Y14436233D01*
X66632971Y14960042D02*
X67632971Y14436233D01*
X67632971Y14007661D02*
X67632971Y13817185D01*
X67561542Y13721947D01*
X67490114Y13674328D01*
X67275828Y13579090D01*
X66990114Y13531471D01*
X66418685Y13531471D01*
X66275828Y13579090D01*
X66204400Y13626709D01*
X66132971Y13721947D01*
X66132971Y13912423D01*
X66204400Y14007661D01*
X66275828Y14055280D01*
X66418685Y14102900D01*
X66775828Y14102900D01*
X66918685Y14055280D01*
X66990114Y14007661D01*
X67061542Y13912423D01*
X67061542Y13721947D01*
X66990114Y13626709D01*
X66918685Y13579090D01*
X66775828Y13531471D01*
X70132971Y14960042D02*
X69132971Y14436233D01*
X69132971Y14960042D02*
X70132971Y14436233D01*
X70132971Y13531471D02*
X70132971Y14102900D01*
X70132971Y13817185D02*
X68632971Y13817185D01*
X68847257Y13912423D01*
X68990114Y14007661D01*
X69061542Y14102900D01*
X70132971Y12579090D02*
X70132971Y13150519D01*
X70132971Y12864804D02*
X68632971Y12864804D01*
X68847257Y12960042D01*
X68990114Y13055280D01*
X69061542Y13150519D01*
X72632971Y14960042D02*
X71632971Y14436233D01*
X71632971Y14960042D02*
X72632971Y14436233D01*
X72632971Y13531471D02*
X72632971Y14102900D01*
X72632971Y13817185D02*
X71132971Y13817185D01*
X71347257Y13912423D01*
X71490114Y14007661D01*
X71561542Y14102900D01*
X71132971Y13198138D02*
X71132971Y12579090D01*
X71704400Y12912423D01*
X71704400Y12769566D01*
X71775828Y12674328D01*
X71847257Y12626709D01*
X71990114Y12579090D01*
X72347257Y12579090D01*
X72490114Y12626709D01*
X72561542Y12674328D01*
X72632971Y12769566D01*
X72632971Y13055280D01*
X72561542Y13150519D01*
X72490114Y13198138D01*
X75132971Y14960042D02*
X74132971Y14436233D01*
X74132971Y14960042D02*
X75132971Y14436233D01*
X75132971Y13531471D02*
X75132971Y14102900D01*
X75132971Y13817185D02*
X73632971Y13817185D01*
X73847257Y13912423D01*
X73990114Y14007661D01*
X74061542Y14102900D01*
X73632971Y12626709D02*
X73632971Y13102900D01*
X74347257Y13150519D01*
X74275828Y13102900D01*
X74204400Y13007661D01*
X74204400Y12769566D01*
X74275828Y12674328D01*
X74347257Y12626709D01*
X74490114Y12579090D01*
X74847257Y12579090D01*
X74990114Y12626709D01*
X75061542Y12674328D01*
X75132971Y12769566D01*
X75132971Y13007661D01*
X75061542Y13102900D01*
X74990114Y13150519D01*
X77632971Y14960042D02*
X76632971Y14436233D01*
X76632971Y14960042D02*
X77632971Y14436233D01*
X77632971Y13531471D02*
X77632971Y14102900D01*
X77632971Y13817185D02*
X76132971Y13817185D01*
X76347257Y13912423D01*
X76490114Y14007661D01*
X76561542Y14102900D01*
X76132971Y13198138D02*
X76132971Y12531471D01*
X77632971Y12960042D01*
X83651542Y14864804D02*
X83651542Y14102900D01*
X84222971Y14483852D02*
X83080114Y14483852D01*
X82722971Y13721947D02*
X82722971Y13102900D01*
X83294400Y13436233D01*
X83294400Y13293376D01*
X83365828Y13198138D01*
X83437257Y13150519D01*
X83580114Y13102900D01*
X83937257Y13102900D01*
X84080114Y13150519D01*
X84151542Y13198138D01*
X84222971Y13293376D01*
X84222971Y13579090D01*
X84151542Y13674328D01*
X84080114Y13721947D01*
X82722971Y12817185D02*
X84222971Y12483852D01*
X82722971Y12150519D01*
X82722971Y11912423D02*
X82722971Y11293376D01*
X83294400Y11626709D01*
X83294400Y11483852D01*
X83365828Y11388614D01*
X83437257Y11340995D01*
X83580114Y11293376D01*
X83937257Y11293376D01*
X84080114Y11340995D01*
X84151542Y11388614D01*
X84222971Y11483852D01*
X84222971Y11769566D01*
X84151542Y11864804D01*
X84080114Y11912423D01*
X85722971Y14864804D02*
X87222971Y14864804D01*
X85794400Y14864804D02*
X85722971Y14769566D01*
X85722971Y14579090D01*
X85794400Y14483852D01*
X85865828Y14436233D01*
X86008685Y14388614D01*
X86437257Y14388614D01*
X86580114Y14436233D01*
X86651542Y14483852D01*
X86722971Y14579090D01*
X86722971Y14769566D01*
X86651542Y14864804D01*
X85722971Y13531471D02*
X86722971Y13531471D01*
X85151542Y13769566D02*
X86222971Y14007661D01*
X86222971Y13388614D01*
X88651542Y14864804D02*
X88651542Y14102900D01*
X89222971Y14483852D02*
X88080114Y14483852D01*
X87722971Y13150519D02*
X87722971Y13626709D01*
X88437257Y13674328D01*
X88365828Y13626709D01*
X88294400Y13531471D01*
X88294400Y13293376D01*
X88365828Y13198138D01*
X88437257Y13150519D01*
X88580114Y13102900D01*
X88937257Y13102900D01*
X89080114Y13150519D01*
X89151542Y13198138D01*
X89222971Y13293376D01*
X89222971Y13531471D01*
X89151542Y13626709D01*
X89080114Y13674328D01*
X87722971Y12817185D02*
X89222971Y12483852D01*
X87722971Y12150519D01*
X90722971Y14864804D02*
X92222971Y14864804D01*
X90794400Y14864804D02*
X90722971Y14769566D01*
X90722971Y14579090D01*
X90794400Y14483852D01*
X90865828Y14436233D01*
X91008685Y14388614D01*
X91437257Y14388614D01*
X91580114Y14436233D01*
X91651542Y14483852D01*
X91722971Y14579090D01*
X91722971Y14769566D01*
X91651542Y14864804D01*
X90865828Y13817185D02*
X90794400Y13912423D01*
X90722971Y13960042D01*
X90580114Y14007661D01*
X90508685Y14007661D01*
X90365828Y13960042D01*
X90294400Y13912423D01*
X90222971Y13817185D01*
X90222971Y13626709D01*
X90294400Y13531471D01*
X90365828Y13483852D01*
X90508685Y13436233D01*
X90580114Y13436233D01*
X90722971Y13483852D01*
X90794400Y13531471D01*
X90865828Y13626709D01*
X90865828Y13817185D01*
X90937257Y13912423D01*
X91008685Y13960042D01*
X91151542Y14007661D01*
X91437257Y14007661D01*
X91580114Y13960042D01*
X91651542Y13912423D01*
X91722971Y13817185D01*
X91722971Y13626709D01*
X91651542Y13531471D01*
X91580114Y13483852D01*
X91437257Y13436233D01*
X91151542Y13436233D01*
X91008685Y13483852D01*
X90937257Y13531471D01*
X90865828Y13626709D01*
X93651542Y14864804D02*
X93651542Y14102900D01*
X94222971Y14483852D02*
X93080114Y14483852D01*
X94222971Y13102900D02*
X94222971Y13674328D01*
X94222971Y13388614D02*
X92722971Y13388614D01*
X92937257Y13483852D01*
X93080114Y13579090D01*
X93151542Y13674328D01*
X92865828Y12721947D02*
X92794400Y12674328D01*
X92722971Y12579090D01*
X92722971Y12340995D01*
X92794400Y12245757D01*
X92865828Y12198138D01*
X93008685Y12150519D01*
X93151542Y12150519D01*
X93365828Y12198138D01*
X94222971Y12769566D01*
X94222971Y12150519D01*
X92722971Y11864804D02*
X94222971Y11531471D01*
X92722971Y11198138D01*
X83651542Y25539804D02*
X83651542Y24777900D01*
X84222971Y25158852D02*
X83080114Y25158852D01*
X82722971Y24396947D02*
X82722971Y23777900D01*
X83294400Y24111233D01*
X83294400Y23968376D01*
X83365828Y23873138D01*
X83437257Y23825519D01*
X83580114Y23777900D01*
X83937257Y23777900D01*
X84080114Y23825519D01*
X84151542Y23873138D01*
X84222971Y23968376D01*
X84222971Y24254090D01*
X84151542Y24349328D01*
X84080114Y24396947D01*
X82722971Y23492185D02*
X84222971Y23158852D01*
X82722971Y22825519D01*
X82722971Y22587423D02*
X82722971Y21968376D01*
X83294400Y22301709D01*
X83294400Y22158852D01*
X83365828Y22063614D01*
X83437257Y22015995D01*
X83580114Y21968376D01*
X83937257Y21968376D01*
X84080114Y22015995D01*
X84151542Y22063614D01*
X84222971Y22158852D01*
X84222971Y22444566D01*
X84151542Y22539804D01*
X84080114Y22587423D01*
X85722971Y23396947D02*
X87222971Y23396947D01*
X85794400Y23396947D02*
X85722971Y23301709D01*
X85722971Y23111233D01*
X85794400Y23015995D01*
X85865828Y22968376D01*
X86008685Y22920757D01*
X86437257Y22920757D01*
X86580114Y22968376D01*
X86651542Y23015995D01*
X86722971Y23111233D01*
X86722971Y23301709D01*
X86651542Y23396947D01*
X85222971Y22587423D02*
X85222971Y21968376D01*
X85794400Y22301709D01*
X85794400Y22158852D01*
X85865828Y22063614D01*
X85937257Y22015995D01*
X86080114Y21968376D01*
X86437257Y21968376D01*
X86580114Y22015995D01*
X86651542Y22063614D01*
X86722971Y22158852D01*
X86722971Y22444566D01*
X86651542Y22539804D01*
X86580114Y22587423D01*
X88651542Y24587423D02*
X88651542Y23825519D01*
X89222971Y24206471D02*
X88080114Y24206471D01*
X87722971Y22873138D02*
X87722971Y23349328D01*
X88437257Y23396947D01*
X88365828Y23349328D01*
X88294400Y23254090D01*
X88294400Y23015995D01*
X88365828Y22920757D01*
X88437257Y22873138D01*
X88580114Y22825519D01*
X88937257Y22825519D01*
X89080114Y22873138D01*
X89151542Y22920757D01*
X89222971Y23015995D01*
X89222971Y23254090D01*
X89151542Y23349328D01*
X89080114Y23396947D01*
X87722971Y22539804D02*
X89222971Y22206471D01*
X87722971Y21873138D01*
X90722971Y23396947D02*
X92222971Y23396947D01*
X90794400Y23396947D02*
X90722971Y23301709D01*
X90722971Y23111233D01*
X90794400Y23015995D01*
X90865828Y22968376D01*
X91008685Y22920757D01*
X91437257Y22920757D01*
X91580114Y22968376D01*
X91651542Y23015995D01*
X91722971Y23111233D01*
X91722971Y23301709D01*
X91651542Y23396947D01*
X90222971Y22587423D02*
X90222971Y21920757D01*
X91722971Y22349328D01*
X93651542Y25539804D02*
X93651542Y24777900D01*
X94222971Y25158852D02*
X93080114Y25158852D01*
X94222971Y23777900D02*
X94222971Y24349328D01*
X94222971Y24063614D02*
X92722971Y24063614D01*
X92937257Y24158852D01*
X93080114Y24254090D01*
X93151542Y24349328D01*
X92865828Y23396947D02*
X92794400Y23349328D01*
X92722971Y23254090D01*
X92722971Y23015995D01*
X92794400Y22920757D01*
X92865828Y22873138D01*
X93008685Y22825519D01*
X93151542Y22825519D01*
X93365828Y22873138D01*
X94222971Y23444566D01*
X94222971Y22825519D01*
X92722971Y22539804D02*
X94222971Y22206471D01*
X92722971Y21873138D01*
X56362971Y23396947D02*
X55362971Y22873138D01*
X55362971Y23396947D02*
X56362971Y22873138D01*
X55005828Y22539804D02*
X54934400Y22492185D01*
X54862971Y22396947D01*
X54862971Y22158852D01*
X54934400Y22063614D01*
X55005828Y22015995D01*
X55148685Y21968376D01*
X55291542Y21968376D01*
X55505828Y22015995D01*
X56362971Y22587423D01*
X56362971Y21968376D01*
X58862971Y23396947D02*
X57862971Y22873138D01*
X57862971Y23396947D02*
X58862971Y22873138D01*
X57862971Y22063614D02*
X58862971Y22063614D01*
X57291542Y22301709D02*
X58362971Y22539804D01*
X58362971Y21920757D01*
X61362971Y23396947D02*
X60362971Y22873138D01*
X60362971Y23396947D02*
X61362971Y22873138D01*
X59862971Y22063614D02*
X59862971Y22254090D01*
X59934400Y22349328D01*
X60005828Y22396947D01*
X60220114Y22492185D01*
X60505828Y22539804D01*
X61077257Y22539804D01*
X61220114Y22492185D01*
X61291542Y22444566D01*
X61362971Y22349328D01*
X61362971Y22158852D01*
X61291542Y22063614D01*
X61220114Y22015995D01*
X61077257Y21968376D01*
X60720114Y21968376D01*
X60577257Y22015995D01*
X60505828Y22063614D01*
X60434400Y22158852D01*
X60434400Y22349328D01*
X60505828Y22444566D01*
X60577257Y22492185D01*
X60720114Y22539804D01*
X63862971Y23396947D02*
X62862971Y22873138D01*
X62862971Y23396947D02*
X63862971Y22873138D01*
X63005828Y22349328D02*
X62934400Y22444566D01*
X62862971Y22492185D01*
X62720114Y22539804D01*
X62648685Y22539804D01*
X62505828Y22492185D01*
X62434400Y22444566D01*
X62362971Y22349328D01*
X62362971Y22158852D01*
X62434400Y22063614D01*
X62505828Y22015995D01*
X62648685Y21968376D01*
X62720114Y21968376D01*
X62862971Y22015995D01*
X62934400Y22063614D01*
X63005828Y22158852D01*
X63005828Y22349328D01*
X63077257Y22444566D01*
X63148685Y22492185D01*
X63291542Y22539804D01*
X63577257Y22539804D01*
X63720114Y22492185D01*
X63791542Y22444566D01*
X63862971Y22349328D01*
X63862971Y22158852D01*
X63791542Y22063614D01*
X63720114Y22015995D01*
X63577257Y21968376D01*
X63291542Y21968376D01*
X63148685Y22015995D01*
X63077257Y22063614D01*
X63005828Y22158852D01*
X66362971Y24349328D02*
X65362971Y23825519D01*
X65362971Y24349328D02*
X66362971Y23825519D01*
X66362971Y22920757D02*
X66362971Y23492185D01*
X66362971Y23206471D02*
X64862971Y23206471D01*
X65077257Y23301709D01*
X65220114Y23396947D01*
X65291542Y23492185D01*
X64862971Y22301709D02*
X64862971Y22206471D01*
X64934400Y22111233D01*
X65005828Y22063614D01*
X65148685Y22015995D01*
X65434400Y21968376D01*
X65791542Y21968376D01*
X66077257Y22015995D01*
X66220114Y22063614D01*
X66291542Y22111233D01*
X66362971Y22206471D01*
X66362971Y22301709D01*
X66291542Y22396947D01*
X66220114Y22444566D01*
X66077257Y22492185D01*
X65791542Y22539804D01*
X65434400Y22539804D01*
X65148685Y22492185D01*
X65005828Y22444566D01*
X64934400Y22396947D01*
X64862971Y22301709D01*
X68862971Y24349328D02*
X67862971Y23825519D01*
X67862971Y24349328D02*
X68862971Y23825519D01*
X68862971Y22920757D02*
X68862971Y23492185D01*
X68862971Y23206471D02*
X67362971Y23206471D01*
X67577257Y23301709D01*
X67720114Y23396947D01*
X67791542Y23492185D01*
X67505828Y22539804D02*
X67434400Y22492185D01*
X67362971Y22396947D01*
X67362971Y22158852D01*
X67434400Y22063614D01*
X67505828Y22015995D01*
X67648685Y21968376D01*
X67791542Y21968376D01*
X68005828Y22015995D01*
X68862971Y22587423D01*
X68862971Y21968376D01*
X71362971Y24349328D02*
X70362971Y23825519D01*
X70362971Y24349328D02*
X71362971Y23825519D01*
X71362971Y22920757D02*
X71362971Y23492185D01*
X71362971Y23206471D02*
X69862971Y23206471D01*
X70077257Y23301709D01*
X70220114Y23396947D01*
X70291542Y23492185D01*
X70362971Y22063614D02*
X71362971Y22063614D01*
X69791542Y22301709D02*
X70862971Y22539804D01*
X70862971Y21920757D01*
X73862971Y24349328D02*
X72862971Y23825519D01*
X72862971Y24349328D02*
X73862971Y23825519D01*
X73862971Y22920757D02*
X73862971Y23492185D01*
X73862971Y23206471D02*
X72362971Y23206471D01*
X72577257Y23301709D01*
X72720114Y23396947D01*
X72791542Y23492185D01*
X72362971Y22063614D02*
X72362971Y22254090D01*
X72434400Y22349328D01*
X72505828Y22396947D01*
X72720114Y22492185D01*
X73005828Y22539804D01*
X73577257Y22539804D01*
X73720114Y22492185D01*
X73791542Y22444566D01*
X73862971Y22349328D01*
X73862971Y22158852D01*
X73791542Y22063614D01*
X73720114Y22015995D01*
X73577257Y21968376D01*
X73220114Y21968376D01*
X73077257Y22015995D01*
X73005828Y22063614D01*
X72934400Y22158852D01*
X72934400Y22349328D01*
X73005828Y22444566D01*
X73077257Y22492185D01*
X73220114Y22539804D01*
X76362971Y24349328D02*
X75362971Y23825519D01*
X75362971Y24349328D02*
X76362971Y23825519D01*
X76362971Y22920757D02*
X76362971Y23492185D01*
X76362971Y23206471D02*
X74862971Y23206471D01*
X75077257Y23301709D01*
X75220114Y23396947D01*
X75291542Y23492185D01*
X75505828Y22349328D02*
X75434400Y22444566D01*
X75362971Y22492185D01*
X75220114Y22539804D01*
X75148685Y22539804D01*
X75005828Y22492185D01*
X74934400Y22444566D01*
X74862971Y22349328D01*
X74862971Y22158852D01*
X74934400Y22063614D01*
X75005828Y22015995D01*
X75148685Y21968376D01*
X75220114Y21968376D01*
X75362971Y22015995D01*
X75434400Y22063614D01*
X75505828Y22158852D01*
X75505828Y22349328D01*
X75577257Y22444566D01*
X75648685Y22492185D01*
X75791542Y22539804D01*
X76077257Y22539804D01*
X76220114Y22492185D01*
X76291542Y22444566D01*
X76362971Y22349328D01*
X76362971Y22158852D01*
X76291542Y22063614D01*
X76220114Y22015995D01*
X76077257Y21968376D01*
X75791542Y21968376D01*
X75648685Y22015995D01*
X75577257Y22063614D01*
X75505828Y22158852D01*
X3084400Y24063614D02*
X3012971Y24158852D01*
X3012971Y24301709D01*
X3084400Y24444566D01*
X3227257Y24539804D01*
X3370114Y24587423D01*
X3655828Y24635042D01*
X3870114Y24635042D01*
X4155828Y24587423D01*
X4298685Y24539804D01*
X4441542Y24444566D01*
X4512971Y24301709D01*
X4512971Y24206471D01*
X4441542Y24063614D01*
X4370114Y24015995D01*
X3870114Y24015995D01*
X3870114Y24206471D01*
X4512971Y23587423D02*
X3012971Y23587423D01*
X4512971Y23015995D01*
X3012971Y23015995D01*
X4512971Y22539804D02*
X3012971Y22539804D01*
X3012971Y22301709D01*
X3084400Y22158852D01*
X3227257Y22063614D01*
X3370114Y22015995D01*
X3655828Y21968376D01*
X3870114Y21968376D01*
X4155828Y22015995D01*
X4298685Y22063614D01*
X4441542Y22158852D01*
X4512971Y22301709D01*
X4512971Y22539804D01*
X5512971Y23539804D02*
X5512971Y22920757D01*
X6084400Y23254090D01*
X6084400Y23111233D01*
X6155828Y23015995D01*
X6227257Y22968376D01*
X6370114Y22920757D01*
X6727257Y22920757D01*
X6870114Y22968376D01*
X6941542Y23015995D01*
X7012971Y23111233D01*
X7012971Y23396947D01*
X6941542Y23492185D01*
X6870114Y23539804D01*
X5512971Y22587423D02*
X5512971Y21920757D01*
X7012971Y22349328D01*
X8012971Y24301709D02*
X8012971Y23682661D01*
X8584400Y24015995D01*
X8584400Y23873138D01*
X8655828Y23777900D01*
X8727257Y23730280D01*
X8870114Y23682661D01*
X9227257Y23682661D01*
X9370114Y23730280D01*
X9441542Y23777900D01*
X9512971Y23873138D01*
X9512971Y24158852D01*
X9441542Y24254090D01*
X9370114Y24301709D01*
X8012971Y22777900D02*
X8012971Y23254090D01*
X8727257Y23301709D01*
X8655828Y23254090D01*
X8584400Y23158852D01*
X8584400Y22920757D01*
X8655828Y22825519D01*
X8727257Y22777900D01*
X8870114Y22730280D01*
X9227257Y22730280D01*
X9370114Y22777900D01*
X9441542Y22825519D01*
X9512971Y22920757D01*
X9512971Y23158852D01*
X9441542Y23254090D01*
X9370114Y23301709D01*
X8012971Y22158852D02*
X8370114Y22158852D01*
X8227257Y22396947D02*
X8370114Y22158852D01*
X8227257Y21920757D01*
X8655828Y22301709D02*
X8370114Y22158852D01*
X8655828Y22015995D01*
X10512971Y24301709D02*
X10512971Y23682661D01*
X11084400Y24015995D01*
X11084400Y23873138D01*
X11155828Y23777900D01*
X11227257Y23730280D01*
X11370114Y23682661D01*
X11727257Y23682661D01*
X11870114Y23730280D01*
X11941542Y23777900D01*
X12012971Y23873138D01*
X12012971Y24158852D01*
X11941542Y24254090D01*
X11870114Y24301709D01*
X10512971Y23349328D02*
X10512971Y22730280D01*
X11084400Y23063614D01*
X11084400Y22920757D01*
X11155828Y22825519D01*
X11227257Y22777900D01*
X11370114Y22730280D01*
X11727257Y22730280D01*
X11870114Y22777900D01*
X11941542Y22825519D01*
X12012971Y22920757D01*
X12012971Y23206471D01*
X11941542Y23301709D01*
X11870114Y23349328D01*
X10512971Y22158852D02*
X10870114Y22158852D01*
X10727257Y22396947D02*
X10870114Y22158852D01*
X10727257Y21920757D01*
X11155828Y22301709D02*
X10870114Y22158852D01*
X11155828Y22015995D01*
X13012971Y24301709D02*
X13012971Y23682661D01*
X13584400Y24015995D01*
X13584400Y23873138D01*
X13655828Y23777900D01*
X13727257Y23730280D01*
X13870114Y23682661D01*
X14227257Y23682661D01*
X14370114Y23730280D01*
X14441542Y23777900D01*
X14512971Y23873138D01*
X14512971Y24158852D01*
X14441542Y24254090D01*
X14370114Y24301709D01*
X14512971Y22730280D02*
X14512971Y23301709D01*
X14512971Y23015995D02*
X13012971Y23015995D01*
X13227257Y23111233D01*
X13370114Y23206471D01*
X13441542Y23301709D01*
X13012971Y22158852D02*
X13370114Y22158852D01*
X13227257Y22396947D02*
X13370114Y22158852D01*
X13227257Y21920757D01*
X13655828Y22301709D02*
X13370114Y22158852D01*
X13655828Y22015995D01*
X15655828Y23492185D02*
X15584400Y23444566D01*
X15512971Y23349328D01*
X15512971Y23111233D01*
X15584400Y23015995D01*
X15655828Y22968376D01*
X15798685Y22920757D01*
X15941542Y22920757D01*
X16155828Y22968376D01*
X17012971Y23539804D01*
X17012971Y22920757D01*
X17012971Y22444566D02*
X17012971Y22254090D01*
X16941542Y22158852D01*
X16870114Y22111233D01*
X16655828Y22015995D01*
X16370114Y21968376D01*
X15798685Y21968376D01*
X15655828Y22015995D01*
X15584400Y22063614D01*
X15512971Y22158852D01*
X15512971Y22349328D01*
X15584400Y22444566D01*
X15655828Y22492185D01*
X15798685Y22539804D01*
X16155828Y22539804D01*
X16298685Y22492185D01*
X16370114Y22444566D01*
X16441542Y22349328D01*
X16441542Y22158852D01*
X16370114Y22063614D01*
X16298685Y22015995D01*
X16155828Y21968376D01*
X18155828Y24254090D02*
X18084400Y24206471D01*
X18012971Y24111233D01*
X18012971Y23873138D01*
X18084400Y23777900D01*
X18155828Y23730280D01*
X18298685Y23682661D01*
X18441542Y23682661D01*
X18655828Y23730280D01*
X19512971Y24301709D01*
X19512971Y23682661D01*
X18012971Y23349328D02*
X18012971Y22682661D01*
X19512971Y23111233D01*
X18012971Y22158852D02*
X18370114Y22158852D01*
X18227257Y22396947D02*
X18370114Y22158852D01*
X18227257Y21920757D01*
X18655828Y22301709D02*
X18370114Y22158852D01*
X18655828Y22015995D01*
X20584400Y24063614D02*
X20512971Y24158852D01*
X20512971Y24301709D01*
X20584400Y24444566D01*
X20727257Y24539804D01*
X20870114Y24587423D01*
X21155828Y24635042D01*
X21370114Y24635042D01*
X21655828Y24587423D01*
X21798685Y24539804D01*
X21941542Y24444566D01*
X22012971Y24301709D01*
X22012971Y24206471D01*
X21941542Y24063614D01*
X21870114Y24015995D01*
X21370114Y24015995D01*
X21370114Y24206471D01*
X22012971Y23587423D02*
X20512971Y23587423D01*
X22012971Y23015995D01*
X20512971Y23015995D01*
X22012971Y22539804D02*
X20512971Y22539804D01*
X20512971Y22301709D01*
X20584400Y22158852D01*
X20727257Y22063614D01*
X20870114Y22015995D01*
X21155828Y21968376D01*
X21370114Y21968376D01*
X21655828Y22015995D01*
X21798685Y22063614D01*
X21941542Y22158852D01*
X22012971Y22301709D01*
X22012971Y22539804D01*
X23155828Y24254090D02*
X23084400Y24206471D01*
X23012971Y24111233D01*
X23012971Y23873138D01*
X23084400Y23777900D01*
X23155828Y23730280D01*
X23298685Y23682661D01*
X23441542Y23682661D01*
X23655828Y23730280D01*
X24512971Y24301709D01*
X24512971Y23682661D01*
X23012971Y23349328D02*
X23012971Y22730280D01*
X23584400Y23063614D01*
X23584400Y22920757D01*
X23655828Y22825519D01*
X23727257Y22777900D01*
X23870114Y22730280D01*
X24227257Y22730280D01*
X24370114Y22777900D01*
X24441542Y22825519D01*
X24512971Y22920757D01*
X24512971Y23206471D01*
X24441542Y23301709D01*
X24370114Y23349328D01*
X23012971Y22158852D02*
X23370114Y22158852D01*
X23227257Y22396947D02*
X23370114Y22158852D01*
X23227257Y21920757D01*
X23655828Y22301709D02*
X23370114Y22158852D01*
X23655828Y22015995D01*
X25655828Y24254090D02*
X25584400Y24206471D01*
X25512971Y24111233D01*
X25512971Y23873138D01*
X25584400Y23777900D01*
X25655828Y23730280D01*
X25798685Y23682661D01*
X25941542Y23682661D01*
X26155828Y23730280D01*
X27012971Y24301709D01*
X27012971Y23682661D01*
X27012971Y22730280D02*
X27012971Y23301709D01*
X27012971Y23015995D02*
X25512971Y23015995D01*
X25727257Y23111233D01*
X25870114Y23206471D01*
X25941542Y23301709D01*
X25512971Y22158852D02*
X25870114Y22158852D01*
X25727257Y22396947D02*
X25870114Y22158852D01*
X25727257Y21920757D01*
X26155828Y22301709D02*
X25870114Y22158852D01*
X26155828Y22015995D01*
X29512971Y23682661D02*
X29512971Y24254090D01*
X29512971Y23968376D02*
X28012971Y23968376D01*
X28227257Y24063614D01*
X28370114Y24158852D01*
X28441542Y24254090D01*
X29512971Y23206471D02*
X29512971Y23015995D01*
X29441542Y22920757D01*
X29370114Y22873138D01*
X29155828Y22777900D01*
X28870114Y22730280D01*
X28298685Y22730280D01*
X28155828Y22777900D01*
X28084400Y22825519D01*
X28012971Y22920757D01*
X28012971Y23111233D01*
X28084400Y23206471D01*
X28155828Y23254090D01*
X28298685Y23301709D01*
X28655828Y23301709D01*
X28798685Y23254090D01*
X28870114Y23206471D01*
X28941542Y23111233D01*
X28941542Y22920757D01*
X28870114Y22825519D01*
X28798685Y22777900D01*
X28655828Y22730280D01*
X28012971Y22158852D02*
X28370114Y22158852D01*
X28227257Y22396947D02*
X28370114Y22158852D01*
X28227257Y21920757D01*
X28655828Y22301709D02*
X28370114Y22158852D01*
X28655828Y22015995D01*
X30512971Y24396947D02*
X30512971Y23777900D01*
X31084400Y24111233D01*
X31084400Y23968376D01*
X31155828Y23873138D01*
X31227257Y23825519D01*
X31370114Y23777900D01*
X31727257Y23777900D01*
X31870114Y23825519D01*
X31941542Y23873138D01*
X32012971Y23968376D01*
X32012971Y24254090D01*
X31941542Y24349328D01*
X31870114Y24396947D01*
X30512971Y23492185D02*
X32012971Y23158852D01*
X30512971Y22825519D01*
X30512971Y22587423D02*
X30512971Y21968376D01*
X31084400Y22301709D01*
X31084400Y22158852D01*
X31155828Y22063614D01*
X31227257Y22015995D01*
X31370114Y21968376D01*
X31727257Y21968376D01*
X31870114Y22015995D01*
X31941542Y22063614D01*
X32012971Y22158852D01*
X32012971Y22444566D01*
X31941542Y22539804D01*
X31870114Y22587423D01*
X34512971Y22920757D02*
X34512971Y23492185D01*
X34512971Y23206471D02*
X33012971Y23206471D01*
X33227257Y23301709D01*
X33370114Y23396947D01*
X33441542Y23492185D01*
X33012971Y22015995D02*
X33012971Y22492185D01*
X33727257Y22539804D01*
X33655828Y22492185D01*
X33584400Y22396947D01*
X33584400Y22158852D01*
X33655828Y22063614D01*
X33727257Y22015995D01*
X33870114Y21968376D01*
X34227257Y21968376D01*
X34370114Y22015995D01*
X34441542Y22063614D01*
X34512971Y22158852D01*
X34512971Y22396947D01*
X34441542Y22492185D01*
X34370114Y22539804D01*
X37012971Y22920757D02*
X37012971Y23492185D01*
X37012971Y23206471D02*
X35512971Y23206471D01*
X35727257Y23301709D01*
X35870114Y23396947D01*
X35941542Y23492185D01*
X35512971Y22587423D02*
X35512971Y21968376D01*
X36084400Y22301709D01*
X36084400Y22158852D01*
X36155828Y22063614D01*
X36227257Y22015995D01*
X36370114Y21968376D01*
X36727257Y21968376D01*
X36870114Y22015995D01*
X36941542Y22063614D01*
X37012971Y22158852D01*
X37012971Y22444566D01*
X36941542Y22539804D01*
X36870114Y22587423D01*
X39512971Y23682661D02*
X39512971Y24254090D01*
X39512971Y23968376D02*
X38012971Y23968376D01*
X38227257Y24063614D01*
X38370114Y24158852D01*
X38441542Y24254090D01*
X39512971Y22730280D02*
X39512971Y23301709D01*
X39512971Y23015995D02*
X38012971Y23015995D01*
X38227257Y23111233D01*
X38370114Y23206471D01*
X38441542Y23301709D01*
X38012971Y22158852D02*
X38370114Y22158852D01*
X38227257Y22396947D02*
X38370114Y22158852D01*
X38227257Y21920757D01*
X38655828Y22301709D02*
X38370114Y22158852D01*
X38655828Y22015995D01*
X40584400Y24063614D02*
X40512971Y24158852D01*
X40512971Y24301709D01*
X40584400Y24444566D01*
X40727257Y24539804D01*
X40870114Y24587423D01*
X41155828Y24635042D01*
X41370114Y24635042D01*
X41655828Y24587423D01*
X41798685Y24539804D01*
X41941542Y24444566D01*
X42012971Y24301709D01*
X42012971Y24206471D01*
X41941542Y24063614D01*
X41870114Y24015995D01*
X41370114Y24015995D01*
X41370114Y24206471D01*
X42012971Y23587423D02*
X40512971Y23587423D01*
X42012971Y23015995D01*
X40512971Y23015995D01*
X42012971Y22539804D02*
X40512971Y22539804D01*
X40512971Y22301709D01*
X40584400Y22158852D01*
X40727257Y22063614D01*
X40870114Y22015995D01*
X41155828Y21968376D01*
X41370114Y21968376D01*
X41655828Y22015995D01*
X41798685Y22063614D01*
X41941542Y22158852D01*
X42012971Y22301709D01*
X42012971Y22539804D01*
X43012971Y22587423D02*
X43012971Y21920757D01*
X44512971Y22349328D01*
X45512971Y22777900D02*
X45512971Y23254090D01*
X46227257Y23301709D01*
X46155828Y23254090D01*
X46084400Y23158852D01*
X46084400Y22920757D01*
X46155828Y22825519D01*
X46227257Y22777900D01*
X46370114Y22730280D01*
X46727257Y22730280D01*
X46870114Y22777900D01*
X46941542Y22825519D01*
X47012971Y22920757D01*
X47012971Y23158852D01*
X46941542Y23254090D01*
X46870114Y23301709D01*
X45512971Y22158852D02*
X45870114Y22158852D01*
X45727257Y22396947D02*
X45870114Y22158852D01*
X45727257Y21920757D01*
X46155828Y22301709D02*
X45870114Y22158852D01*
X46155828Y22015995D01*
X48012971Y23349328D02*
X48012971Y22730280D01*
X48584400Y23063614D01*
X48584400Y22920757D01*
X48655828Y22825519D01*
X48727257Y22777900D01*
X48870114Y22730280D01*
X49227257Y22730280D01*
X49370114Y22777900D01*
X49441542Y22825519D01*
X49512971Y22920757D01*
X49512971Y23206471D01*
X49441542Y23301709D01*
X49370114Y23349328D01*
X48012971Y22158852D02*
X48370114Y22158852D01*
X48227257Y22396947D02*
X48370114Y22158852D01*
X48227257Y21920757D01*
X48655828Y22301709D02*
X48370114Y22158852D01*
X48655828Y22015995D01*
X50512971Y24396947D02*
X50512971Y23777900D01*
X51084400Y24111233D01*
X51084400Y23968376D01*
X51155828Y23873138D01*
X51227257Y23825519D01*
X51370114Y23777900D01*
X51727257Y23777900D01*
X51870114Y23825519D01*
X51941542Y23873138D01*
X52012971Y23968376D01*
X52012971Y24254090D01*
X51941542Y24349328D01*
X51870114Y24396947D01*
X50512971Y23492185D02*
X52012971Y23158852D01*
X50512971Y22825519D01*
X50512971Y22587423D02*
X50512971Y21968376D01*
X51084400Y22301709D01*
X51084400Y22158852D01*
X51155828Y22063614D01*
X51227257Y22015995D01*
X51370114Y21968376D01*
X51727257Y21968376D01*
X51870114Y22015995D01*
X51941542Y22063614D01*
X52012971Y22158852D01*
X52012971Y22444566D01*
X51941542Y22539804D01*
X51870114Y22587423D01*
X3512971Y14436233D02*
X4512971Y14436233D01*
X2941542Y14674328D02*
X4012971Y14912423D01*
X4012971Y14293376D01*
X3012971Y13721947D02*
X3012971Y13626709D01*
X3084400Y13531471D01*
X3155828Y13483852D01*
X3298685Y13436233D01*
X3584400Y13388614D01*
X3941542Y13388614D01*
X4227257Y13436233D01*
X4370114Y13483852D01*
X4441542Y13531471D01*
X4512971Y13626709D01*
X4512971Y13721947D01*
X4441542Y13817185D01*
X4370114Y13864804D01*
X4227257Y13912423D01*
X3941542Y13960042D01*
X3584400Y13960042D01*
X3298685Y13912423D01*
X3155828Y13864804D01*
X3084400Y13817185D01*
X3012971Y13721947D01*
X3012971Y12817185D02*
X3370114Y12817185D01*
X3227257Y13055280D02*
X3370114Y12817185D01*
X3227257Y12579090D01*
X3655828Y12960042D02*
X3370114Y12817185D01*
X3655828Y12674328D01*
X5512971Y14960042D02*
X5512971Y14340995D01*
X6084400Y14674328D01*
X6084400Y14531471D01*
X6155828Y14436233D01*
X6227257Y14388614D01*
X6370114Y14340995D01*
X6727257Y14340995D01*
X6870114Y14388614D01*
X6941542Y14436233D01*
X7012971Y14531471D01*
X7012971Y14817185D01*
X6941542Y14912423D01*
X6870114Y14960042D01*
X6155828Y13769566D02*
X6084400Y13864804D01*
X6012971Y13912423D01*
X5870114Y13960042D01*
X5798685Y13960042D01*
X5655828Y13912423D01*
X5584400Y13864804D01*
X5512971Y13769566D01*
X5512971Y13579090D01*
X5584400Y13483852D01*
X5655828Y13436233D01*
X5798685Y13388614D01*
X5870114Y13388614D01*
X6012971Y13436233D01*
X6084400Y13483852D01*
X6155828Y13579090D01*
X6155828Y13769566D01*
X6227257Y13864804D01*
X6298685Y13912423D01*
X6441542Y13960042D01*
X6727257Y13960042D01*
X6870114Y13912423D01*
X6941542Y13864804D01*
X7012971Y13769566D01*
X7012971Y13579090D01*
X6941542Y13483852D01*
X6870114Y13436233D01*
X6727257Y13388614D01*
X6441542Y13388614D01*
X6298685Y13436233D01*
X6227257Y13483852D01*
X6155828Y13579090D01*
X5512971Y12817185D02*
X5870114Y12817185D01*
X5727257Y13055280D02*
X5870114Y12817185D01*
X5727257Y12579090D01*
X6155828Y12960042D02*
X5870114Y12817185D01*
X6155828Y12674328D01*
X8012971Y14960042D02*
X8012971Y14340995D01*
X8584400Y14674328D01*
X8584400Y14531471D01*
X8655828Y14436233D01*
X8727257Y14388614D01*
X8870114Y14340995D01*
X9227257Y14340995D01*
X9370114Y14388614D01*
X9441542Y14436233D01*
X9512971Y14531471D01*
X9512971Y14817185D01*
X9441542Y14912423D01*
X9370114Y14960042D01*
X8012971Y13483852D02*
X8012971Y13674328D01*
X8084400Y13769566D01*
X8155828Y13817185D01*
X8370114Y13912423D01*
X8655828Y13960042D01*
X9227257Y13960042D01*
X9370114Y13912423D01*
X9441542Y13864804D01*
X9512971Y13769566D01*
X9512971Y13579090D01*
X9441542Y13483852D01*
X9370114Y13436233D01*
X9227257Y13388614D01*
X8870114Y13388614D01*
X8727257Y13436233D01*
X8655828Y13483852D01*
X8584400Y13579090D01*
X8584400Y13769566D01*
X8655828Y13864804D01*
X8727257Y13912423D01*
X8870114Y13960042D01*
X8012971Y12817185D02*
X8370114Y12817185D01*
X8227257Y13055280D02*
X8370114Y12817185D01*
X8227257Y12579090D01*
X8655828Y12960042D02*
X8370114Y12817185D01*
X8655828Y12674328D01*
X10584400Y14340995D02*
X10512971Y14436233D01*
X10512971Y14579090D01*
X10584400Y14721947D01*
X10727257Y14817185D01*
X10870114Y14864804D01*
X11155828Y14912423D01*
X11370114Y14912423D01*
X11655828Y14864804D01*
X11798685Y14817185D01*
X11941542Y14721947D01*
X12012971Y14579090D01*
X12012971Y14483852D01*
X11941542Y14340995D01*
X11870114Y14293376D01*
X11370114Y14293376D01*
X11370114Y14483852D01*
X12012971Y13864804D02*
X10512971Y13864804D01*
X12012971Y13293376D01*
X10512971Y13293376D01*
X12012971Y12817185D02*
X10512971Y12817185D01*
X10512971Y12579090D01*
X10584400Y12436233D01*
X10727257Y12340995D01*
X10870114Y12293376D01*
X11155828Y12245757D01*
X11370114Y12245757D01*
X11655828Y12293376D01*
X11798685Y12340995D01*
X11941542Y12436233D01*
X12012971Y12579090D01*
X12012971Y12817185D01*
X13012971Y14960042D02*
X13012971Y14340995D01*
X13584400Y14674328D01*
X13584400Y14531471D01*
X13655828Y14436233D01*
X13727257Y14388614D01*
X13870114Y14340995D01*
X14227257Y14340995D01*
X14370114Y14388614D01*
X14441542Y14436233D01*
X14512971Y14531471D01*
X14512971Y14817185D01*
X14441542Y14912423D01*
X14370114Y14960042D01*
X13155828Y13960042D02*
X13084400Y13912423D01*
X13012971Y13817185D01*
X13012971Y13579090D01*
X13084400Y13483852D01*
X13155828Y13436233D01*
X13298685Y13388614D01*
X13441542Y13388614D01*
X13655828Y13436233D01*
X14512971Y14007661D01*
X14512971Y13388614D01*
X13012971Y12817185D02*
X13370114Y12817185D01*
X13227257Y13055280D02*
X13370114Y12817185D01*
X13227257Y12579090D01*
X13655828Y12960042D02*
X13370114Y12817185D01*
X13655828Y12674328D01*
X15584400Y14340995D02*
X15512971Y14436233D01*
X15512971Y14579090D01*
X15584400Y14721947D01*
X15727257Y14817185D01*
X15870114Y14864804D01*
X16155828Y14912423D01*
X16370114Y14912423D01*
X16655828Y14864804D01*
X16798685Y14817185D01*
X16941542Y14721947D01*
X17012971Y14579090D01*
X17012971Y14483852D01*
X16941542Y14340995D01*
X16870114Y14293376D01*
X16370114Y14293376D01*
X16370114Y14483852D01*
X17012971Y13864804D02*
X15512971Y13864804D01*
X17012971Y13293376D01*
X15512971Y13293376D01*
X17012971Y12817185D02*
X15512971Y12817185D01*
X15512971Y12579090D01*
X15584400Y12436233D01*
X15727257Y12340995D01*
X15870114Y12293376D01*
X16155828Y12245757D01*
X16370114Y12245757D01*
X16655828Y12293376D01*
X16798685Y12340995D01*
X16941542Y12436233D01*
X17012971Y12579090D01*
X17012971Y12817185D01*
X18155828Y14912423D02*
X18084400Y14864804D01*
X18012971Y14769566D01*
X18012971Y14531471D01*
X18084400Y14436233D01*
X18155828Y14388614D01*
X18298685Y14340995D01*
X18441542Y14340995D01*
X18655828Y14388614D01*
X19512971Y14960042D01*
X19512971Y14340995D01*
X18655828Y13769566D02*
X18584400Y13864804D01*
X18512971Y13912423D01*
X18370114Y13960042D01*
X18298685Y13960042D01*
X18155828Y13912423D01*
X18084400Y13864804D01*
X18012971Y13769566D01*
X18012971Y13579090D01*
X18084400Y13483852D01*
X18155828Y13436233D01*
X18298685Y13388614D01*
X18370114Y13388614D01*
X18512971Y13436233D01*
X18584400Y13483852D01*
X18655828Y13579090D01*
X18655828Y13769566D01*
X18727257Y13864804D01*
X18798685Y13912423D01*
X18941542Y13960042D01*
X19227257Y13960042D01*
X19370114Y13912423D01*
X19441542Y13864804D01*
X19512971Y13769566D01*
X19512971Y13579090D01*
X19441542Y13483852D01*
X19370114Y13436233D01*
X19227257Y13388614D01*
X18941542Y13388614D01*
X18798685Y13436233D01*
X18727257Y13483852D01*
X18655828Y13579090D01*
X18012971Y12817185D02*
X18370114Y12817185D01*
X18227257Y13055280D02*
X18370114Y12817185D01*
X18227257Y12579090D01*
X18655828Y12960042D02*
X18370114Y12817185D01*
X18655828Y12674328D01*
X20655828Y14912423D02*
X20584400Y14864804D01*
X20512971Y14769566D01*
X20512971Y14531471D01*
X20584400Y14436233D01*
X20655828Y14388614D01*
X20798685Y14340995D01*
X20941542Y14340995D01*
X21155828Y14388614D01*
X22012971Y14960042D01*
X22012971Y14340995D01*
X20512971Y13483852D02*
X20512971Y13674328D01*
X20584400Y13769566D01*
X20655828Y13817185D01*
X20870114Y13912423D01*
X21155828Y13960042D01*
X21727257Y13960042D01*
X21870114Y13912423D01*
X21941542Y13864804D01*
X22012971Y13769566D01*
X22012971Y13579090D01*
X21941542Y13483852D01*
X21870114Y13436233D01*
X21727257Y13388614D01*
X21370114Y13388614D01*
X21227257Y13436233D01*
X21155828Y13483852D01*
X21084400Y13579090D01*
X21084400Y13769566D01*
X21155828Y13864804D01*
X21227257Y13912423D01*
X21370114Y13960042D01*
X23155828Y14912423D02*
X23084400Y14864804D01*
X23012971Y14769566D01*
X23012971Y14531471D01*
X23084400Y14436233D01*
X23155828Y14388614D01*
X23298685Y14340995D01*
X23441542Y14340995D01*
X23655828Y14388614D01*
X24512971Y14960042D01*
X24512971Y14340995D01*
X23512971Y13483852D02*
X24512971Y13483852D01*
X22941542Y13721947D02*
X24012971Y13960042D01*
X24012971Y13340995D01*
X25655828Y14912423D02*
X25584400Y14864804D01*
X25512971Y14769566D01*
X25512971Y14531471D01*
X25584400Y14436233D01*
X25655828Y14388614D01*
X25798685Y14340995D01*
X25941542Y14340995D01*
X26155828Y14388614D01*
X27012971Y14960042D01*
X27012971Y14340995D01*
X25655828Y13960042D02*
X25584400Y13912423D01*
X25512971Y13817185D01*
X25512971Y13579090D01*
X25584400Y13483852D01*
X25655828Y13436233D01*
X25798685Y13388614D01*
X25941542Y13388614D01*
X26155828Y13436233D01*
X27012971Y14007661D01*
X27012971Y13388614D01*
X28155828Y14912423D02*
X28084400Y14864804D01*
X28012971Y14769566D01*
X28012971Y14531471D01*
X28084400Y14436233D01*
X28155828Y14388614D01*
X28298685Y14340995D01*
X28441542Y14340995D01*
X28655828Y14388614D01*
X29512971Y14960042D01*
X29512971Y14340995D01*
X28012971Y13721947D02*
X28012971Y13626709D01*
X28084400Y13531471D01*
X28155828Y13483852D01*
X28298685Y13436233D01*
X28584400Y13388614D01*
X28941542Y13388614D01*
X29227257Y13436233D01*
X29370114Y13483852D01*
X29441542Y13531471D01*
X29512971Y13626709D01*
X29512971Y13721947D01*
X29441542Y13817185D01*
X29370114Y13864804D01*
X29227257Y13912423D01*
X28941542Y13960042D01*
X28584400Y13960042D01*
X28298685Y13912423D01*
X28155828Y13864804D01*
X28084400Y13817185D01*
X28012971Y13721947D01*
X32012971Y14340995D02*
X32012971Y14912423D01*
X32012971Y14626709D02*
X30512971Y14626709D01*
X30727257Y14721947D01*
X30870114Y14817185D01*
X30941542Y14912423D01*
X31155828Y13769566D02*
X31084400Y13864804D01*
X31012971Y13912423D01*
X30870114Y13960042D01*
X30798685Y13960042D01*
X30655828Y13912423D01*
X30584400Y13864804D01*
X30512971Y13769566D01*
X30512971Y13579090D01*
X30584400Y13483852D01*
X30655828Y13436233D01*
X30798685Y13388614D01*
X30870114Y13388614D01*
X31012971Y13436233D01*
X31084400Y13483852D01*
X31155828Y13579090D01*
X31155828Y13769566D01*
X31227257Y13864804D01*
X31298685Y13912423D01*
X31441542Y13960042D01*
X31727257Y13960042D01*
X31870114Y13912423D01*
X31941542Y13864804D01*
X32012971Y13769566D01*
X32012971Y13579090D01*
X31941542Y13483852D01*
X31870114Y13436233D01*
X31727257Y13388614D01*
X31441542Y13388614D01*
X31298685Y13436233D01*
X31227257Y13483852D01*
X31155828Y13579090D01*
X30512971Y12817185D02*
X30870114Y12817185D01*
X30727257Y13055280D02*
X30870114Y12817185D01*
X30727257Y12579090D01*
X31155828Y12960042D02*
X30870114Y12817185D01*
X31155828Y12674328D01*
X34512971Y14340995D02*
X34512971Y14912423D01*
X34512971Y14626709D02*
X33012971Y14626709D01*
X33227257Y14721947D01*
X33370114Y14817185D01*
X33441542Y14912423D01*
X33012971Y13483852D02*
X33012971Y13674328D01*
X33084400Y13769566D01*
X33155828Y13817185D01*
X33370114Y13912423D01*
X33655828Y13960042D01*
X34227257Y13960042D01*
X34370114Y13912423D01*
X34441542Y13864804D01*
X34512971Y13769566D01*
X34512971Y13579090D01*
X34441542Y13483852D01*
X34370114Y13436233D01*
X34227257Y13388614D01*
X33870114Y13388614D01*
X33727257Y13436233D01*
X33655828Y13483852D01*
X33584400Y13579090D01*
X33584400Y13769566D01*
X33655828Y13864804D01*
X33727257Y13912423D01*
X33870114Y13960042D01*
X35584400Y14340995D02*
X35512971Y14436233D01*
X35512971Y14579090D01*
X35584400Y14721947D01*
X35727257Y14817185D01*
X35870114Y14864804D01*
X36155828Y14912423D01*
X36370114Y14912423D01*
X36655828Y14864804D01*
X36798685Y14817185D01*
X36941542Y14721947D01*
X37012971Y14579090D01*
X37012971Y14483852D01*
X36941542Y14340995D01*
X36870114Y14293376D01*
X36370114Y14293376D01*
X36370114Y14483852D01*
X37012971Y13864804D02*
X35512971Y13864804D01*
X37012971Y13293376D01*
X35512971Y13293376D01*
X37012971Y12817185D02*
X35512971Y12817185D01*
X35512971Y12579090D01*
X35584400Y12436233D01*
X35727257Y12340995D01*
X35870114Y12293376D01*
X36155828Y12245757D01*
X36370114Y12245757D01*
X36655828Y12293376D01*
X36798685Y12340995D01*
X36941542Y12436233D01*
X37012971Y12579090D01*
X37012971Y12817185D01*
X39512971Y14340995D02*
X39512971Y14912423D01*
X39512971Y14626709D02*
X38012971Y14626709D01*
X38227257Y14721947D01*
X38370114Y14817185D01*
X38441542Y14912423D01*
X38155828Y13960042D02*
X38084400Y13912423D01*
X38012971Y13817185D01*
X38012971Y13579090D01*
X38084400Y13483852D01*
X38155828Y13436233D01*
X38298685Y13388614D01*
X38441542Y13388614D01*
X38655828Y13436233D01*
X39512971Y14007661D01*
X39512971Y13388614D01*
X42012971Y14340995D02*
X42012971Y14912423D01*
X42012971Y14626709D02*
X40512971Y14626709D01*
X40727257Y14721947D01*
X40870114Y14817185D01*
X40941542Y14912423D01*
X40512971Y13721947D02*
X40512971Y13626709D01*
X40584400Y13531471D01*
X40655828Y13483852D01*
X40798685Y13436233D01*
X41084400Y13388614D01*
X41441542Y13388614D01*
X41727257Y13436233D01*
X41870114Y13483852D01*
X41941542Y13531471D01*
X42012971Y13626709D01*
X42012971Y13721947D01*
X41941542Y13817185D01*
X41870114Y13864804D01*
X41727257Y13912423D01*
X41441542Y13960042D01*
X41084400Y13960042D01*
X40798685Y13912423D01*
X40655828Y13864804D01*
X40584400Y13817185D01*
X40512971Y13721947D01*
X43655828Y14721947D02*
X43584400Y14817185D01*
X43512971Y14864804D01*
X43370114Y14912423D01*
X43298685Y14912423D01*
X43155828Y14864804D01*
X43084400Y14817185D01*
X43012971Y14721947D01*
X43012971Y14531471D01*
X43084400Y14436233D01*
X43155828Y14388614D01*
X43298685Y14340995D01*
X43370114Y14340995D01*
X43512971Y14388614D01*
X43584400Y14436233D01*
X43655828Y14531471D01*
X43655828Y14721947D01*
X43727257Y14817185D01*
X43798685Y14864804D01*
X43941542Y14912423D01*
X44227257Y14912423D01*
X44370114Y14864804D01*
X44441542Y14817185D01*
X44512971Y14721947D01*
X44512971Y14531471D01*
X44441542Y14436233D01*
X44370114Y14388614D01*
X44227257Y14340995D01*
X43941542Y14340995D01*
X43798685Y14388614D01*
X43727257Y14436233D01*
X43655828Y14531471D01*
X45584400Y14340995D02*
X45512971Y14436233D01*
X45512971Y14579090D01*
X45584400Y14721947D01*
X45727257Y14817185D01*
X45870114Y14864804D01*
X46155828Y14912423D01*
X46370114Y14912423D01*
X46655828Y14864804D01*
X46798685Y14817185D01*
X46941542Y14721947D01*
X47012971Y14579090D01*
X47012971Y14483852D01*
X46941542Y14340995D01*
X46870114Y14293376D01*
X46370114Y14293376D01*
X46370114Y14483852D01*
X47012971Y13864804D02*
X45512971Y13864804D01*
X47012971Y13293376D01*
X45512971Y13293376D01*
X47012971Y12817185D02*
X45512971Y12817185D01*
X45512971Y12579090D01*
X45584400Y12436233D01*
X45727257Y12340995D01*
X45870114Y12293376D01*
X46155828Y12245757D01*
X46370114Y12245757D01*
X46655828Y12293376D01*
X46798685Y12340995D01*
X46941542Y12436233D01*
X47012971Y12579090D01*
X47012971Y12817185D01*
X48012971Y14388614D02*
X48012971Y14864804D01*
X48727257Y14912423D01*
X48655828Y14864804D01*
X48584400Y14769566D01*
X48584400Y14531471D01*
X48655828Y14436233D01*
X48727257Y14388614D01*
X48870114Y14340995D01*
X49227257Y14340995D01*
X49370114Y14388614D01*
X49441542Y14436233D01*
X49512971Y14531471D01*
X49512971Y14769566D01*
X49441542Y14864804D01*
X49370114Y14912423D01*
X48012971Y14055280D02*
X49512971Y13721947D01*
X48012971Y13388614D01*
X50512971Y14388614D02*
X50512971Y14864804D01*
X51227257Y14912423D01*
X51155828Y14864804D01*
X51084400Y14769566D01*
X51084400Y14531471D01*
X51155828Y14436233D01*
X51227257Y14388614D01*
X51370114Y14340995D01*
X51727257Y14340995D01*
X51870114Y14388614D01*
X51941542Y14436233D01*
X52012971Y14531471D01*
X52012971Y14769566D01*
X51941542Y14864804D01*
X51870114Y14912423D01*
X50512971Y14055280D02*
X52012971Y13721947D01*
X50512971Y13388614D01*
D11*
X-4673695Y12003019D02*
X-4673695Y11193495D01*
X-4721314Y11098257D01*
X-4768933Y11050638D01*
X-4864171Y11003019D01*
X-5054647Y11003019D01*
X-5149885Y11050638D01*
X-5197504Y11098257D01*
X-5245123Y11193495D01*
X-5245123Y12003019D01*
X-6245123Y11003019D02*
X-5673695Y11003019D01*
X-5959409Y11003019D02*
X-5959409Y12003019D01*
X-5864171Y11860161D01*
X-5768933Y11764923D01*
X-5673695Y11717304D01*
M02*
