M48
INCH
T1C0.0394
T2C0.0472
%
G90
G05
T1
X2.22Y0.77
X2.22Y0.67
X2.32Y0.77
X2.32Y0.67
X2.42Y0.77
X2.42Y0.67
X2.52Y0.77
X2.52Y0.67
X2.62Y0.77
X2.62Y0.67
X2.72Y0.77
X2.72Y0.67
X2.82Y0.77
X2.82Y0.67
X2.92Y0.77
X2.92Y0.67
X3.02Y0.77
X3.02Y0.67
X0.125Y0.77
X0.125Y0.67
X0.225Y0.77
X0.225Y0.67
X0.325Y0.77
X0.325Y0.67
X0.425Y0.77
X0.425Y0.67
X0.525Y0.77
X0.525Y0.67
X0.625Y0.77
X0.625Y0.67
X0.725Y0.77
X0.725Y0.67
X0.825Y0.77
X0.825Y0.67
X0.925Y0.77
X0.925Y0.67
X1.025Y0.77
X1.025Y0.67
X1.125Y0.77
X1.125Y0.67
X1.225Y0.77
X1.225Y0.67
X1.325Y0.77
X1.325Y0.67
X1.425Y0.77
X1.425Y0.67
X1.525Y0.77
X1.525Y0.67
X1.625Y0.77
X1.625Y0.67
X1.725Y0.77
X1.725Y0.67
X1.825Y0.77
X1.825Y0.67
X1.925Y0.77
X1.925Y0.67
X2.025Y0.77
X2.025Y0.67
X3.275Y0.765
X3.275Y0.665
X3.375Y0.765
X3.375Y0.665
X3.475Y0.765
X3.475Y0.665
X3.575Y0.765
X3.575Y0.665
X3.675Y0.765
X3.675Y0.665
T2
X0.086Y2.501
X0.086Y2.401
X0.086Y2.301
X0.086Y2.201
X0.086Y2.101
X0.086Y2.001
X0.086Y1.901
X0.086Y1.801
X0.086Y1.701
X0.086Y1.601
X0.086Y1.501
X0.086Y1.401
X0.086Y1.301
X0.086Y1.201
X0.086Y1.101
X0.186Y2.501
X0.186Y2.401
X0.186Y2.301
X0.186Y2.201
X0.186Y2.101
X0.186Y2.001
X0.186Y1.901
X0.186Y1.801
X0.186Y1.701
X0.186Y1.601
X0.186Y1.501
X0.186Y1.401
X0.186Y1.301
X0.186Y1.201
X0.186Y1.101
X0.286Y2.501
X0.286Y2.401
X0.286Y2.301
X0.286Y2.201
X0.286Y2.101
X0.286Y2.001
X0.286Y1.901
X0.286Y1.801
X0.286Y1.701
X0.286Y1.601
X0.286Y1.501
X0.286Y1.401
X0.286Y1.301
X0.286Y1.201
X0.286Y1.101
X0.386Y2.501
X0.386Y2.401
X0.386Y2.301
X0.386Y2.201
X0.386Y2.101
X0.386Y2.001
X0.386Y1.901
X0.386Y1.801
X0.386Y1.701
X0.386Y1.601
X0.386Y1.501
X0.386Y1.401
X0.386Y1.301
X0.386Y1.201
X0.386Y1.101
X0.486Y2.501
X0.486Y2.401
X0.486Y2.301
X0.486Y2.201
X0.486Y2.101
X0.486Y2.001
X0.486Y1.901
X0.486Y1.801
X0.486Y1.701
X0.486Y1.601
X0.486Y1.501
X0.486Y1.401
X0.486Y1.301
X0.486Y1.201
X0.486Y1.101
X0.586Y2.501
X0.586Y2.401
X0.586Y2.301
X0.586Y2.201
X0.586Y2.101
X0.586Y2.001
X0.586Y1.901
X0.586Y1.801
X0.586Y1.701
X0.586Y1.601
X0.586Y1.501
X0.586Y1.401
X0.586Y1.301
X0.586Y1.201
X0.586Y1.101
X0.686Y2.501
X0.686Y2.401
X0.686Y2.301
X0.686Y2.201
X0.686Y2.101
X0.686Y2.001
X0.686Y1.901
X0.686Y1.801
X0.686Y1.701
X0.686Y1.601
X0.686Y1.501
X0.686Y1.401
X0.686Y1.301
X0.686Y1.201
X0.686Y1.101
X0.786Y2.501
X0.786Y2.401
X0.786Y2.301
X0.786Y2.201
X0.786Y2.101
X0.786Y2.001
X0.786Y1.901
X0.786Y1.801
X0.786Y1.701
X0.786Y1.601
X0.786Y1.501
X0.786Y1.401
X0.786Y1.301
X0.786Y1.201
X0.786Y1.101
X0.886Y2.501
X0.886Y2.401
X0.886Y2.301
X0.886Y2.201
X0.886Y2.101
X0.886Y2.001
X0.886Y1.901
X0.886Y1.801
X0.886Y1.701
X0.886Y1.601
X0.886Y1.501
X0.886Y1.401
X0.886Y1.301
X0.886Y1.201
X0.886Y1.101
X0.986Y2.501
X0.986Y2.401
X0.986Y2.301
X0.986Y2.201
X0.986Y2.101
X0.986Y2.001
X0.986Y1.901
X0.986Y1.801
X0.986Y1.701
X0.986Y1.601
X0.986Y1.501
X0.986Y1.401
X0.986Y1.301
X0.986Y1.201
X0.986Y1.101
X1.086Y2.501
X1.086Y2.401
X1.086Y2.301
X1.086Y2.201
X1.086Y2.101
X1.086Y2.001
X1.086Y1.901
X1.086Y1.801
X1.086Y1.701
X1.086Y1.601
X1.086Y1.501
X1.086Y1.401
X1.086Y1.301
X1.086Y1.201
X1.086Y1.101
X1.186Y2.501
X1.186Y2.401
X1.186Y2.301
X1.186Y2.201
X1.186Y2.101
X1.186Y2.001
X1.186Y1.901
X1.186Y1.801
X1.186Y1.701
X1.186Y1.601
X1.186Y1.501
X1.186Y1.401
X1.186Y1.301
X1.186Y1.201
X1.186Y1.101
X1.286Y2.501
X1.286Y2.401
X1.286Y2.301
X1.286Y2.201
X1.286Y2.101
X1.286Y2.001
X1.286Y1.901
X1.286Y1.801
X1.286Y1.701
X1.286Y1.601
X1.286Y1.501
X1.286Y1.401
X1.286Y1.301
X1.286Y1.201
X1.286Y1.101
X1.386Y2.501
X1.386Y2.401
X1.386Y2.301
X1.386Y2.201
X1.386Y2.101
X1.386Y2.001
X1.386Y1.901
X1.386Y1.801
X1.386Y1.701
X1.386Y1.601
X1.386Y1.501
X1.386Y1.401
X1.386Y1.301
X1.386Y1.201
X1.386Y1.101
X1.486Y2.501
X1.486Y2.401
X1.486Y2.301
X1.486Y2.201
X1.486Y2.101
X1.486Y2.001
X1.486Y1.901
X1.486Y1.801
X1.486Y1.701
X1.486Y1.601
X1.486Y1.501
X1.486Y1.401
X1.486Y1.301
X1.486Y1.201
X1.486Y1.101
X1.586Y2.501
X1.586Y2.401
X1.586Y2.301
X1.586Y2.201
X1.586Y2.101
X1.586Y2.001
X1.586Y1.901
X1.586Y1.801
X1.586Y1.701
X1.586Y1.601
X1.586Y1.501
X1.586Y1.401
X1.586Y1.301
X1.586Y1.201
X1.586Y1.101
X1.686Y2.501
X1.686Y2.401
X1.686Y2.301
X1.686Y2.201
X1.686Y2.101
X1.686Y2.001
X1.686Y1.901
X1.686Y1.801
X1.686Y1.701
X1.686Y1.601
X1.686Y1.501
X1.686Y1.401
X1.686Y1.301
X1.686Y1.201
X1.686Y1.101
X1.786Y2.501
X1.786Y2.401
X1.786Y2.301
X1.786Y2.201
X1.786Y2.101
X1.786Y2.001
X1.786Y1.901
X1.786Y1.801
X1.786Y1.701
X1.786Y1.601
X1.786Y1.501
X1.786Y1.401
X1.786Y1.301
X1.786Y1.201
X1.786Y1.101
X1.886Y2.501
X1.886Y2.401
X1.886Y2.301
X1.886Y2.201
X1.886Y2.101
X1.886Y2.001
X1.886Y1.901
X1.886Y1.801
X1.886Y1.701
X1.886Y1.601
X1.886Y1.501
X1.886Y1.401
X1.886Y1.301
X1.886Y1.201
X1.886Y1.101
X1.986Y2.501
X1.986Y2.401
X1.986Y2.301
X1.986Y2.201
X1.986Y2.101
X1.986Y2.001
X1.986Y1.901
X1.986Y1.801
X1.986Y1.701
X1.986Y1.601
X1.986Y1.501
X1.986Y1.401
X1.986Y1.301
X1.986Y1.201
X1.986Y1.101
X2.086Y2.501
X2.086Y2.401
X2.086Y2.301
X2.086Y2.201
X2.086Y2.101
X2.086Y2.001
X2.086Y1.901
X2.086Y1.801
X2.086Y1.701
X2.086Y1.601
X2.086Y1.501
X2.086Y1.401
X2.086Y1.301
X2.086Y1.201
X2.086Y1.101
X2.186Y2.501
X2.186Y2.401
X2.186Y2.301
X2.186Y2.201
X2.186Y2.101
X2.186Y2.001
X2.186Y1.901
X2.186Y1.801
X2.186Y1.701
X2.186Y1.601
X2.186Y1.501
X2.186Y1.401
X2.186Y1.301
X2.186Y1.201
X2.186Y1.101
X2.286Y2.501
X2.286Y2.401
X2.286Y2.301
X2.286Y2.201
X2.286Y2.101
X2.286Y2.001
X2.286Y1.901
X2.286Y1.801
X2.286Y1.701
X2.286Y1.601
X2.286Y1.501
X2.286Y1.401
X2.286Y1.301
X2.286Y1.201
X2.286Y1.101
X2.386Y2.501
X2.386Y2.401
X2.386Y2.301
X2.386Y2.201
X2.386Y2.101
X2.386Y2.001
X2.386Y1.901
X2.386Y1.801
X2.386Y1.701
X2.386Y1.601
X2.386Y1.501
X2.386Y1.401
X2.386Y1.301
X2.386Y1.201
X2.386Y1.101
X2.486Y2.501
X2.486Y2.401
X2.486Y2.301
X2.486Y2.201
X2.486Y2.101
X2.486Y2.001
X2.486Y1.901
X2.486Y1.801
X2.486Y1.701
X2.486Y1.601
X2.486Y1.501
X2.486Y1.401
X2.486Y1.301
X2.486Y1.201
X2.486Y1.101
X2.586Y2.501
X2.586Y2.401
X2.586Y2.301
X2.586Y2.201
X2.586Y2.101
X2.586Y2.001
X2.586Y1.901
X2.586Y1.801
X2.586Y1.701
X2.586Y1.601
X2.586Y1.501
X2.586Y1.401
X2.586Y1.301
X2.586Y1.201
X2.586Y1.101
X2.686Y2.501
X2.686Y2.401
X2.686Y2.301
X2.686Y2.201
X2.686Y2.101
X2.686Y2.001
X2.686Y1.901
X2.686Y1.801
X2.686Y1.701
X2.686Y1.601
X2.686Y1.501
X2.686Y1.401
X2.686Y1.301
X2.686Y1.201
X2.686Y1.101
X2.786Y2.501
X2.786Y2.401
X2.786Y2.301
X2.786Y2.201
X2.786Y2.101
X2.786Y2.001
X2.786Y1.901
X2.786Y1.801
X2.786Y1.701
X2.786Y1.601
X2.786Y1.501
X2.786Y1.401
X2.786Y1.301
X2.786Y1.201
X2.786Y1.101
X2.886Y2.501
X2.886Y2.401
X2.886Y2.301
X2.886Y2.201
X2.886Y2.101
X2.886Y2.001
X2.886Y1.901
X2.886Y1.801
X2.886Y1.701
X2.886Y1.601
X2.886Y1.501
X2.886Y1.401
X2.886Y1.301
X2.886Y1.201
X2.886Y1.101
X2.986Y2.501
X2.986Y2.401
X2.986Y2.301
X2.986Y2.201
X2.986Y2.101
X2.986Y2.001
X2.986Y1.901
X2.986Y1.801
X2.986Y1.701
X2.986Y1.601
X2.986Y1.501
X2.986Y1.401
X2.986Y1.301
X2.986Y1.201
X2.986Y1.101
X3.086Y2.501
X3.086Y2.401
X3.086Y2.301
X3.086Y2.201
X3.086Y2.101
X3.086Y2.001
X3.086Y1.901
X3.086Y1.801
X3.086Y1.701
X3.086Y1.601
X3.086Y1.501
X3.086Y1.401
X3.086Y1.301
X3.086Y1.201
X3.086Y1.101
X3.186Y2.501
X3.186Y2.401
X3.186Y2.301
X3.186Y2.201
X3.186Y2.101
X3.186Y2.001
X3.186Y1.901
X3.186Y1.801
X3.186Y1.701
X3.186Y1.601
X3.186Y1.501
X3.186Y1.401
X3.186Y1.301
X3.186Y1.201
X3.186Y1.101
X3.286Y2.501
X3.286Y2.401
X3.286Y2.301
X3.286Y2.201
X3.286Y2.101
X3.286Y2.001
X3.286Y1.901
X3.286Y1.801
X3.286Y1.701
X3.286Y1.601
X3.286Y1.501
X3.286Y1.401
X3.286Y1.301
X3.286Y1.201
X3.286Y1.101
X3.386Y2.501
X3.386Y2.401
X3.386Y2.301
X3.386Y2.201
X3.386Y2.101
X3.386Y2.001
X3.386Y1.901
X3.386Y1.801
X3.386Y1.701
X3.386Y1.601
X3.386Y1.501
X3.386Y1.401
X3.386Y1.301
X3.386Y1.201
X3.386Y1.101
X3.486Y2.501
X3.486Y2.401
X3.486Y2.301
X3.486Y2.201
X3.486Y2.101
X3.486Y2.001
X3.486Y1.901
X3.486Y1.801
X3.486Y1.701
X3.486Y1.601
X3.486Y1.501
X3.486Y1.401
X3.486Y1.301
X3.486Y1.201
X3.486Y1.101
X3.586Y2.501
X3.586Y2.401
X3.586Y2.301
X3.586Y2.201
X3.586Y2.101
X3.586Y2.001
X3.586Y1.901
X3.586Y1.801
X3.586Y1.701
X3.586Y1.601
X3.586Y1.501
X3.586Y1.401
X3.586Y1.301
X3.586Y1.201
X3.586Y1.101
X3.686Y2.501
X3.686Y2.401
X3.686Y2.301
X3.686Y2.201
X3.686Y2.101
X3.686Y2.001
X3.686Y1.901
X3.686Y1.801
X3.686Y1.701
X3.686Y1.601
X3.686Y1.501
X3.686Y1.401
X3.686Y1.301
X3.686Y1.201
X3.686Y1.101
T0
M30
